{
    "asset" : {
        "generator" : "Khronos glTF Blender I/O v1.4.40",
        "version" : "2.0"
    },
    "scene" : 0,
    "scenes" : [
        {
            "name" : "Scene",
            "nodes" : [
                0
            ]
        }
    ],
    "nodes" : [
        {
            "mesh" : 0,
            "name" : "playerstart_reference"
        }
    ],
    "materials" : [
        {
            "doubleSided" : true,
            "name" : "orange",
            "pbrMetallicRoughness" : {
                "baseColorTexture" : {
                    "index" : 0,
                    "texCoord" : 0
                },
                "metallicFactor" : 0,
                "roughnessFactor" : 0.5
            }
        },
        {
            "doubleSided" : true,
            "name" : "gray",
            "pbrMetallicRoughness" : {
                "baseColorTexture" : {
                    "index" : 1,
                    "texCoord" : 0
                },
                "metallicFactor" : 0,
                "roughnessFactor" : 0.5
            }
        }
    ],
    "meshes" : [
        {
            "name" : "playerstart_reference",
            "primitives" : [
                {
                    "attributes" : {
                        "POSITION" : 0,
                        "NORMAL" : 1,
                        "TEXCOORD_0" : 2
                    },
                    "indices" : 3,
                    "material" : 0
                },
                {
                    "attributes" : {
                        "POSITION" : 4,
                        "NORMAL" : 5,
                        "TEXCOORD_0" : 6
                    },
                    "indices" : 7,
                    "material" : 1
                }
            ]
        }
    ],
    "textures" : [
        {
            "sampler" : 0,
            "source" : 0
        },
        {
            "sampler" : 0,
            "source" : 1
        }
    ],
    "images" : [
        {
            "bufferView" : 4,
            "mimeType" : "image/png",
            "name" : "orange"
        },
        {
            "bufferView" : 9,
            "mimeType" : "image/png",
            "name" : "gray"
        }
    ],
    "accessors" : [
        {
            "bufferView" : 0,
            "componentType" : 5126,
            "count" : 1679,
            "max" : [
                13.12559986114502,
                71.38710021972656,
                7.659160614013672
            ],
            "min" : [
                -13.12559986114502,
                0.11633846163749695,
                -5.974559783935547
            ],
            "type" : "VEC3"
        },
        {
            "bufferView" : 1,
            "componentType" : 5126,
            "count" : 1679,
            "type" : "VEC3"
        },
        {
            "bufferView" : 2,
            "componentType" : 5126,
            "count" : 1679,
            "type" : "VEC2"
        },
        {
            "bufferView" : 3,
            "componentType" : 5123,
            "count" : 1887,
            "type" : "SCALAR"
        },
        {
            "bufferView" : 5,
            "componentType" : 5126,
            "count" : 209,
            "max" : [
                2.9743800163269043,
                66.63860321044922,
                5.557469367980957
            ],
            "min" : [
                -2.9109699726104736,
                60.74509811401367,
                3.528629779815674
            ],
            "type" : "VEC3"
        },
        {
            "bufferView" : 6,
            "componentType" : 5126,
            "count" : 209,
            "type" : "VEC3"
        },
        {
            "bufferView" : 7,
            "componentType" : 5126,
            "count" : 209,
            "type" : "VEC2"
        },
        {
            "bufferView" : 8,
            "componentType" : 5123,
            "count" : 642,
            "type" : "SCALAR"
        }
    ],
    "bufferViews" : [
        {
            "buffer" : 0,
            "byteLength" : 20148,
            "byteOffset" : 0
        },
        {
            "buffer" : 0,
            "byteLength" : 20148,
            "byteOffset" : 20148
        },
        {
            "buffer" : 0,
            "byteLength" : 13432,
            "byteOffset" : 40296
        },
        {
            "buffer" : 0,
            "byteLength" : 3774,
            "byteOffset" : 53728
        },
        {
            "buffer" : 0,
            "byteLength" : 23259,
            "byteOffset" : 57504
        },
        {
            "buffer" : 0,
            "byteLength" : 2508,
            "byteOffset" : 80764
        },
        {
            "buffer" : 0,
            "byteLength" : 2508,
            "byteOffset" : 83272
        },
        {
            "buffer" : 0,
            "byteLength" : 1672,
            "byteOffset" : 85780
        },
        {
            "buffer" : 0,
            "byteLength" : 1284,
            "byteOffset" : 87452
        },
        {
            "buffer" : 0,
            "byteLength" : 221,
            "byteOffset" : 88736
        }
    ],
    "samplers" : [
        {
            "magFilter" : 9729,
            "minFilter" : 9986
        }
    ],
    "buffers" : [
        {
            "byteLength" : 88960,
            "uri" : "data:application/octet-stream;base64,"
        }
    ]
}
